<svg width="124" height="21" viewBox="0 0 124 21" fill="none" xmlns="http://www.w3.org/2000/svg">
<path d="M14.62 17.88C13.86 18.6267 12.9867 19.2133 12 19.64C11.0133 20.0667 9.94667 20.28 8.8 20.28C7.66667 20.28 6.6 20.0667 5.6 19.64C4.61333 19.2 3.74667 18.6133 3 17.88C2.25333 17.1333 1.66 16.26 1.22 15.26C0.793333 14.26 0.58 13.1933 0.58 12.06C0.58 10.9267 0.793333 9.86667 1.22 8.88C1.66 7.88 2.25333 7.00667 3 6.26C3.74667 5.51333 4.61333 4.92667 5.6 4.5C6.6 4.06 7.66667 3.84 8.8 3.84C9.94667 3.84 11.0133 4.06 12 4.5C12.9867 4.92667 13.86 5.51333 14.62 6.26L12.14 8.74C11.7133 8.31333 11.2133 7.98 10.64 7.74C10.0667 7.48667 9.45333 7.36 8.8 7.36C8.14667 7.36 7.53333 7.48667 6.96 7.74C6.4 7.98 5.90667 8.31333 5.48 8.74C5.05333 9.16667 4.71333 9.66667 4.46 10.24C4.22 10.8133 4.1 11.42 4.1 12.06C4.1 12.7133 4.22 13.3267 4.46 13.9C4.71333 14.4733 5.05333 14.9733 5.48 15.4C5.90667 15.8267 6.4 16.1667 6.96 16.42C7.53333 16.66 8.14667 16.78 8.8 16.78C9.45333 16.78 10.0667 16.66 10.64 16.42C11.2133 16.1667 11.7133 15.8267 12.14 15.4L14.62 17.88ZM22.4375 20.28C21.3042 20.28 20.2375 20.0667 19.2375 19.64C18.2375 19.2 17.3642 18.6133 16.6175 17.88C15.8842 17.1333 15.2975 16.26 14.8575 15.26C14.4308 14.26 14.2175 13.1933 14.2175 12.06C14.2175 10.9267 14.4308 9.86667 14.8575 8.88C15.2975 7.88 15.8842 7.00667 16.6175 6.26C17.3642 5.51333 18.2375 4.92667 19.2375 4.5C20.2375 4.06 21.3042 3.84 22.4375 3.84C23.5708 3.84 24.6375 4.06 25.6375 4.5C26.6375 4.92667 27.5042 5.51333 28.2375 6.26C28.9842 7.00667 29.5708 7.88 29.9975 8.88C30.4375 9.86667 30.6575 10.9267 30.6575 12.06C30.6575 13.1933 30.4375 14.26 29.9975 15.26C29.5708 16.26 28.9842 17.1333 28.2375 17.88C27.5042 18.6133 26.6375 19.2 25.6375 19.64C24.6375 20.0667 23.5708 20.28 22.4375 20.28ZM22.4375 7.36C21.7842 7.36 21.1708 7.48667 20.5975 7.74C20.0375 7.98 19.5442 8.31333 19.1175 8.74C18.6908 9.16667 18.3508 9.66667 18.0975 10.24C17.8575 10.8133 17.7375 11.42 17.7375 12.06C17.7375 12.7133 17.8575 13.3267 18.0975 13.9C18.3508 14.4733 18.6908 14.9733 19.1175 15.4C19.5442 15.8267 20.0375 16.1667 20.5975 16.42C21.1708 16.66 21.7842 16.78 22.4375 16.78C23.0908 16.78 23.6975 16.66 24.2575 16.42C24.8308 16.1667 25.3308 15.8267 25.7575 15.4C26.1842 14.9733 26.5175 14.4733 26.7575 13.9C27.0108 13.3267 27.1375 12.7133 27.1375 12.06C27.1375 11.42 27.0108 10.8133 26.7575 10.24C26.5175 9.66667 26.1842 9.16667 25.7575 8.74C25.3308 8.31333 24.8308 7.98 24.2575 7.74C23.6975 7.48667 23.0908 7.36 22.4375 7.36ZM41.343 3.84C42.383 3.84 43.363 4.04 44.283 4.44C45.203 4.84 46.003 5.38667 46.683 6.08C47.3763 6.76 47.923 7.56667 48.323 8.5C48.723 9.42 48.923 10.4 48.923 11.44V20H45.403V14.16V11.64C45.403 11 45.2763 10.4 45.023 9.84C44.783 9.26667 44.4496 8.77333 44.023 8.36C43.6096 7.93333 43.1163 7.6 42.543 7.36C41.983 7.10667 41.383 6.98 40.743 6.98C40.103 6.98 39.4963 7.10667 38.923 7.36C38.3496 7.6 37.8496 7.93333 37.423 8.36C37.0096 8.77333 36.6763 9.26667 36.423 9.84C36.183 10.4 36.063 11 36.063 11.64V14.16V20H32.563V4.16H36.063V5.98C36.7563 5.31333 37.5496 4.79333 38.443 4.42C39.3496 4.03333 40.3163 3.84 41.343 3.84ZM56.9847 20.26C56.518 20.2733 56.0247 20.2267 55.5047 20.12C54.9847 20.0133 54.4514 19.8333 53.9047 19.58C53.3714 19.3267 52.8247 18.9933 52.2647 18.58C51.7047 18.1533 51.158 17.62 50.6247 16.98L53.0647 14.52L54.3047 15.76C54.9314 16.2933 55.5514 16.6267 56.1647 16.76C56.7914 16.8933 57.3514 16.9067 57.8447 16.8C58.3514 16.6933 58.758 16.5067 59.0647 16.24C59.3847 15.9733 59.5447 15.7067 59.5447 15.44C59.5447 15.24 59.5114 15.06 59.4447 14.9C59.3914 14.74 59.258 14.5933 59.0447 14.46C58.8314 14.3133 58.5247 14.18 58.1247 14.06C57.7247 13.94 57.178 13.82 56.4847 13.7C56.1114 13.6333 55.7047 13.56 55.2647 13.48C54.838 13.3867 54.4047 13.2667 53.9647 13.12C53.538 12.96 53.118 12.7667 52.7047 12.54C52.3047 12.3 51.9447 12.0067 51.6247 11.66C51.3047 11.3 51.0514 10.8733 50.8647 10.38C50.678 9.87333 50.5847 9.28 50.5847 8.6C50.5847 7.73333 50.838 6.96667 51.3447 6.3C51.8647 5.62 52.5514 5.04667 53.4047 4.58C53.9514 4.27333 54.598 4.06 55.3447 3.94C56.0914 3.80667 56.8847 3.82 57.7247 3.98C58.578 4.12667 59.4514 4.44 60.3447 4.92C61.2514 5.38667 62.1314 6.06667 62.9847 6.96L60.7047 9.58L59.4047 8.44C58.7514 7.90667 58.1047 7.56667 57.4647 7.42C56.838 7.27333 56.2714 7.24667 55.7647 7.34C55.258 7.42 54.8447 7.58667 54.5247 7.84C54.218 8.09333 54.0647 8.34667 54.0647 8.6C54.0647 8.82667 54.0914 9.02 54.1447 9.18C54.2114 9.34 54.3447 9.48667 54.5447 9.62C54.758 9.74 55.0647 9.85333 55.4647 9.96C55.8647 10.0533 56.4047 10.16 57.0847 10.28C57.6447 10.3867 58.2647 10.52 58.9447 10.68C59.638 10.84 60.2847 11.1 60.8847 11.46C61.4847 11.82 61.9914 12.32 62.4047 12.96C62.818 13.5867 63.0247 14.4133 63.0247 15.44C63.0247 16.3733 62.7447 17.22 62.1847 17.98C61.638 18.7267 60.8714 19.3 59.8847 19.7C59.018 20.0733 58.0514 20.26 56.9847 20.26ZM72.3858 20.26C71.3324 20.26 70.3391 20.06 69.4058 19.66C68.4858 19.26 67.6791 18.72 66.9858 18.04C66.3058 17.3467 65.7658 16.54 65.3658 15.62C64.9658 14.6867 64.7658 13.6933 64.7658 12.64V4.14H68.2858V9.9V12.44C68.2858 13.08 68.4058 13.6867 68.6458 14.26C68.8991 14.8333 69.2391 15.3333 69.6658 15.76C70.0924 16.1733 70.5858 16.5067 71.1458 16.76C71.7191 17 72.3324 17.12 72.9858 17.12C73.6258 17.12 74.2324 17 74.8058 16.76C75.3791 16.5067 75.8724 16.1733 76.2858 15.76C76.7124 15.3333 77.0458 14.8333 77.2858 14.26C77.5391 13.6867 77.6658 13.08 77.6658 12.44V9.9V4.14H81.1858V20.04H77.6658V18.12C76.9724 18.7867 76.1724 19.3133 75.2658 19.7C74.3724 20.0733 73.4124 20.26 72.3858 20.26ZM83.3689 0H86.8889V4.14V5.74V20H83.3689V5.74V4.14V0ZM99.1064 16.5V20.02H95.9264C95.0331 20.02 94.1931 19.8533 93.4064 19.52C92.6197 19.1733 91.9264 18.7067 91.3264 18.12C90.7397 17.52 90.2731 16.8267 89.9264 16.04C89.5931 15.2533 89.4264 14.4067 89.4264 13.5V2.38H92.9264V5.52H96.9864V9.04H92.9264V13.5C92.9264 13.9133 93.0064 14.3067 93.1664 14.68C93.3264 15.04 93.5397 15.3533 93.8064 15.62C94.0864 15.8867 94.4064 16.1 94.7664 16.26C95.1264 16.42 95.5131 16.5 95.9264 16.5H99.1064ZM104.413 0V3.24H100.893V0H104.413ZM100.893 20H104.413V4.14H100.893V20ZM114.879 20.28C113.746 20.28 112.679 20.0667 111.679 19.64C110.679 19.2 109.806 18.6133 109.059 17.88C108.326 17.1333 107.739 16.26 107.299 15.26C106.872 14.26 106.659 13.1933 106.659 12.06C106.659 10.9267 106.872 9.86667 107.299 8.88C107.739 7.88 108.326 7.00667 109.059 6.26C109.806 5.51333 110.679 4.92667 111.679 4.5C112.679 4.06 113.746 3.84 114.879 3.84C116.012 3.84 117.079 4.06 118.079 4.5C119.079 4.92667 119.946 5.51333 120.679 6.26C121.426 7.00667 122.012 7.88 122.439 8.88C122.879 9.86667 123.099 10.9267 123.099 12.06C123.099 13.1933 122.879 14.26 122.439 15.26C122.012 16.26 121.426 17.1333 120.679 17.88C119.946 18.6133 119.079 19.2 118.079 19.64C117.079 20.0667 116.012 20.28 114.879 20.28ZM114.879 7.36C114.226 7.36 113.612 7.48667 113.039 7.74C112.479 7.98 111.986 8.31333 111.559 8.74C111.132 9.16667 110.792 9.66667 110.539 10.24C110.299 10.8133 110.179 11.42 110.179 12.06C110.179 12.7133 110.299 13.3267 110.539 13.9C110.792 14.4733 111.132 14.9733 111.559 15.4C111.986 15.8267 112.479 16.1667 113.039 16.42C113.612 16.66 114.226 16.78 114.879 16.78C115.532 16.78 116.139 16.66 116.699 16.42C117.272 16.1667 117.772 15.8267 118.199 15.4C118.626 14.9733 118.959 14.4733 119.199 13.9C119.452 13.3267 119.579 12.7133 119.579 12.06C119.579 11.42 119.452 10.8133 119.199 10.24C118.959 9.66667 118.626 9.16667 118.199 8.74C117.772 8.31333 117.272 7.98 116.699 7.74C116.139 7.48667 115.532 7.36 114.879 7.36Z" fill="#437EEB"/>
</svg>
