<svg width="55" height="55" viewBox="0 0 55 55" fill="none" xmlns="http://www.w3.org/2000/svg">
<path d="M29.0879 43.3634C27.9997 43.3634 26.9116 43.3634 25.8234 43.3634C25.7504 43.3472 25.6691 43.331 25.5961 43.331C24.0694 43.2335 22.5428 43.1848 21.0242 43.0467C19.0834 42.8843 17.1589 42.6001 15.2831 42.056C14.3736 41.7962 13.4884 41.4795 12.717 40.9273C12.1567 40.5294 11.9131 40.0178 11.978 39.3113C12.1079 37.939 12.7007 36.7777 13.6021 35.7627C14.7958 34.4228 16.29 33.5052 17.906 32.7581C18.1415 32.6525 18.2876 32.685 18.4663 32.8555C19.1403 33.5377 19.9117 34.1061 20.7319 34.6014C21.8525 35.2836 23.0544 35.787 24.3374 36.0875C24.5729 36.1443 24.7109 36.2499 24.8327 36.4529C25.8965 38.1663 28.219 38.4993 29.705 37.0457C31.0855 35.6896 30.8744 33.562 29.4695 32.4333C28.1865 31.402 26.3675 31.5075 25.2306 32.7094C25.1251 32.8149 25.0276 32.8637 24.8815 32.8149C24.4917 32.6769 24.0938 32.5713 23.7284 32.4089C21.1623 31.2639 19.3433 29.4206 18.4257 26.749C18.0521 25.6852 17.8897 24.5889 17.8979 23.4602C17.906 21.6818 18.3688 20.0333 19.3108 18.5148C20.3827 16.7851 21.8525 15.5102 23.7284 14.7144C25.7422 13.8618 27.8292 13.7237 29.9568 14.2678C31.0043 14.5358 31.9788 14.9743 32.872 15.5671C33.8302 16.2167 34.6585 17.0125 35.3325 17.9626C35.9822 18.8802 36.4694 19.8709 36.7698 20.959C37.3058 22.908 37.2002 24.8406 36.5993 26.749C36.0877 28.3974 35.2675 29.8916 34.1226 31.1909C34.0089 31.3208 33.9033 31.4588 33.7734 31.6131C33.8708 31.6456 33.9358 31.6618 34.0008 31.6862C35.0402 32.0516 36.0958 32.3602 37.1109 32.7825C38.6619 33.4321 40.0586 34.3254 41.2117 35.5515C42.2593 36.6641 42.9576 37.9308 43.0307 39.49C43.0551 39.9285 42.9658 40.3264 42.6328 40.6187C42.2999 40.9029 41.9426 41.1709 41.5528 41.3658C40.4159 41.9424 39.1897 42.2428 37.9473 42.4946C35.6167 42.9574 33.2537 43.1523 30.8906 43.2741C30.2897 43.3066 29.6888 43.331 29.0879 43.3634Z" fill="white"/>
<path d="M33.5618 13.2846C36.0954 14.7707 38.0525 17.1906 38.9132 19.9921C39.238 21.0559 39.4248 22.1441 39.4411 23.2566C39.4492 23.4434 39.3923 23.5164 39.1974 23.5002C38.9944 23.4921 38.7914 23.4921 38.5884 23.5083C38.4016 23.5164 38.3448 23.4515 38.3285 23.2647C38.2879 22.745 38.2392 22.2253 38.1743 21.7056C38.0037 20.4956 37.5733 19.3669 36.9887 18.3031C36.2984 17.0607 35.4052 15.9806 34.2845 15.1117C31.6373 13.0491 28.6408 12.3183 25.3439 12.9517C23.4356 13.3171 21.7465 14.186 20.293 15.4772C19.0911 16.5409 18.1735 17.8077 17.5401 19.2694C16.9148 20.7149 16.6144 22.2496 16.6712 23.8331C16.8012 27.7634 19.018 31.2634 22.5261 33.0661C23.4112 33.5209 24.3451 33.8457 25.3195 34.0568C25.5144 34.1055 25.6362 34.0974 25.7499 33.8863C26.2453 32.9606 27.3415 32.587 28.2998 33.0012C29.2499 33.4072 29.729 34.4628 29.4204 35.4617C29.1686 36.2737 28.3728 36.8421 27.4796 36.834C26.6026 36.8259 25.823 36.2656 25.5875 35.4454C25.5307 35.2586 25.4413 35.1856 25.2627 35.1531C24.0527 34.9257 22.9078 34.5197 21.8277 33.935C20.6746 33.3179 19.6596 32.5302 18.7582 31.5801C17.7188 30.4676 16.9067 29.2008 16.3627 27.7878C15.7049 26.0825 15.4532 24.3122 15.6074 22.4933C15.7617 20.7474 16.2733 19.1151 17.1503 17.6047C18.0192 16.0943 19.1642 14.8356 20.5934 13.8287C24.4425 11.1246 29.5178 10.9053 33.5618 13.2846Z" fill="white"/>
</svg>
